<?xml version="1.0" standalone="no"?>
<svg xmlns:xlink="http://www.w3.org/1999/xlink" id="wave" style="transform:rotate(180deg); transition: 0.3s" viewBox="0 0 1440 100" version="1.1" xmlns="http://www.w3.org/2000/svg"><defs><linearGradient id="sw-gradient-0" x1="0" x2="0" y1="1" y2="0"><stop stop-color="rgba(186, 215, 242, 1)" offset="0%"/><stop stop-color="rgba(186, 215, 242, 1)" offset="100%"/></linearGradient></defs><path style="transform:translate(0, 0px); opacity:1" fill="url(#sw-gradient-0)" d="M0,30L60,36.7C120,43,240,57,360,58.3C480,60,600,50,720,38.3C840,27,960,13,1080,8.3C1200,3,1320,7,1440,20C1560,33,1680,57,1800,56.7C1920,57,2040,33,2160,25C2280,17,2400,23,2520,23.3C2640,23,2760,17,2880,18.3C3000,20,3120,30,3240,30C3360,30,3480,20,3600,16.7C3720,13,3840,17,3960,16.7C4080,17,4200,13,4320,13.3C4440,13,4560,17,4680,21.7C4800,27,4920,33,5040,43.3C5160,53,5280,67,5400,73.3C5520,80,5640,80,5760,81.7C5880,83,6000,87,6120,78.3C6240,70,6360,50,6480,50C6600,50,6720,70,6840,76.7C6960,83,7080,77,7200,76.7C7320,77,7440,83,7560,73.3C7680,63,7800,37,7920,30C8040,23,8160,37,8280,50C8400,63,8520,77,8580,83.3L8640,90L8640,100L8580,100C8520,100,8400,100,8280,100C8160,100,8040,100,7920,100C7800,100,7680,100,7560,100C7440,100,7320,100,7200,100C7080,100,6960,100,6840,100C6720,100,6600,100,6480,100C6360,100,6240,100,6120,100C6000,100,5880,100,5760,100C5640,100,5520,100,5400,100C5280,100,5160,100,5040,100C4920,100,4800,100,4680,100C4560,100,4440,100,4320,100C4200,100,4080,100,3960,100C3840,100,3720,100,3600,100C3480,100,3360,100,3240,100C3120,100,3000,100,2880,100C2760,100,2640,100,2520,100C2400,100,2280,100,2160,100C2040,100,1920,100,1800,100C1680,100,1560,100,1440,100C1320,100,1200,100,1080,100C960,100,840,100,720,100C600,100,480,100,360,100C240,100,120,100,60,100L0,100Z"/></svg>